<!DOCTYPE svg PUBLIC "-//W3C//DTD SVG 1.1//EN" "http://www.w3.org/Graphics/SVG/1.1/DTD/svg11.dtd">

<!-- Uploaded to: SVG Repo, www.svgrepo.com, Transformed by: SVG Repo Mixer Tools -->
<svg fill="#f0b100" version="1.1" id="Layer_1" xmlns="http://www.w3.org/2000/svg" xmlns:xlink="http://www.w3.org/1999/xlink" viewBox="0 0 512 512" xml:space="preserve" stroke="#f0b100">

<g id="SVGRepo_bgCarrier" stroke-width="0"/>

<g id="SVGRepo_tracerCarrier" stroke-linecap="round" stroke-linejoin="round"/>

<g id="SVGRepo_iconCarrier"> <g> <g> <g> <path d="M123.296,82.924c2.499,0,5.012-0.839,7.083-2.563c10.72-8.911,24.294-13.82,38.219-13.82 c6.124,0,11.09-4.966,11.09-11.09c0-6.124-4.966-11.09-11.09-11.09c-19.094,0-37.704,6.727-52.399,18.945 c-4.71,3.915-5.354,10.907-1.438,15.617C116.955,81.562,120.112,82.924,123.296,82.924z"/> <path d="M108.371,319.742c0.029,0.14,0.061,0.278,0.095,0.416c3.534,14.137,16.181,24.009,30.752,24.009h58.758 c14.573,0,27.219-9.873,30.753-24.009c0.034-0.138,0.067-0.276,0.095-0.415c10.813-58.513,2.738-59.18,29.793-94.591 c23.479-30.732,36.409-65.793,36.409-98.723C295.028,56.717,238.311,0,168.599,0S42.17,56.717,42.17,126.429 c0,32.931,12.93,67.992,36.409,98.723C105.633,260.563,97.56,261.23,108.371,319.742z M207.17,314.945 c-1.119,4.156-4.873,7.042-9.19,7.042h-58.758c-4.319,0-8.073-2.887-9.192-7.042l-4.334-20.683h85.81L207.17,314.945z M154.053,194.449l-23.761-62.174c2.322,0.688,4.647,1.463,7.074,2.272c8.597,2.866,18.342,6.114,31.232,6.114 c12.89,0,22.635-3.248,31.232-6.114c2.427-0.808,4.752-1.585,7.074-2.272l-23.76,62.174H154.053z M179.689,216.63v55.451h-22.181 V216.63H179.689z M168.599,22.181c57.483,0,104.249,46.765,104.249,104.249c0,28.092-11.312,58.37-31.855,85.256 c-13.924,18.224-23.784,35.897-26.057,60.395H201.87v-64.495l32.54-85.146c1.303-3.409,0.846-7.241-1.224-10.247 s-5.485-4.802-9.135-4.802c-12.89,0-22.635,3.248-31.232,6.114c-8.01,2.671-14.929,4.976-24.219,4.976 c-9.29,0-16.208-2.306-24.219-4.976c-8.597-2.866-18.342-6.114-31.232-6.114c-3.65,0-7.066,1.796-9.135,4.802 c-2.069,3.007-2.526,6.838-1.224,10.247l32.54,85.146v64.495h-13.068c-2.272-24.497-12.132-42.171-26.055-60.395 C75.663,184.8,64.35,154.522,64.35,126.429C64.35,68.946,111.116,22.181,168.599,22.181z"/> <path d="M137.546,366.348c-6.124,0-11.09,4.966-11.09,11.09c0,6.124,4.966,11.09,11.09,11.09h60.626 c6.124,0,11.09-4.966,11.09-11.09c0-6.124-4.966-11.09-11.09-11.09H137.546z"/> <path d="M476.538,451.743h-34.009c-9.377,0-17.006-7.628-17.006-17.005V317.92c0-21.606-17.579-39.185-39.185-39.185 s-39.185,17.579-39.185,39.185v154.894c0,9.377-7.629,17.005-17.006,17.005H201.13c-5.646,0-10.643-2.776-13.737-7.023h7.262 c51.946,0,96.727-35.269,108.899-85.769l7.475-31.016c2.404-9.975,0.143-20.32-6.206-28.381 c-6.349-8.063-15.876-12.685-26.138-12.685c-15.429,0-28.729,10.475-32.345,25.475v-0.001l-6.792,28.177 c-5.343,22.172-25.006,37.658-47.814,37.658h-47.363c-22.993,0-42.693-15.642-47.903-38.037l-6.408-27.543 c-3.526-15.149-16.851-25.729-32.406-25.729c-10.21,0-19.707,4.586-26.055,12.581c-6.349,7.996-8.664,18.284-6.35,28.23 l7.076,30.411c5.709,24.535,19.719,46.674,39.447,62.338c19.727,15.665,44.466,24.291,69.657,24.291h21.81 C167.664,499.583,182.973,512,201.13,512h129.016c21.607,0,39.186-17.579,39.186-39.185V317.92 c0-9.377,7.628-17.005,17.005-17.005s17.005,7.628,17.005,17.005v116.818c0,21.606,17.579,39.185,39.186,39.185h34.009 c6.124,0,11.09-4.966,11.09-11.09C487.628,456.709,482.663,451.743,476.538,451.743z M141.428,460.614 c-41.999,0.001-77.98-28.569-87.499-69.474l-7.076-30.411c-0.772-3.315,0-6.745,2.116-9.41s5.282-4.194,8.685-4.194 c5.185,0,9.627,3.527,10.801,8.576l6.408,27.543c7.561,32.496,36.145,55.191,69.508,55.191h47.363 c33.093,0,61.622-22.47,69.377-54.642l6.792-28.176c0-0.001,0-0.001,0-0.001c1.206-5,5.638-8.491,10.782-8.491 c3.42,0,6.595,1.542,8.713,4.228c2.115,2.687,2.869,6.134,2.067,9.46l-7.475,31.016c-9.763,40.501-45.676,68.785-87.336,68.785 H141.428z"/> </g> </g> </g> </g>

</svg>
